<?xml version="1.0" encoding="UTF-8" standalone="no"?>
<!-- Created with Inkscape (http://www.inkscape.org/) -->

<svg
   xmlns:dc="http://purl.org/dc/elements/1.1/"
   xmlns:cc="http://creativecommons.org/ns#"
   xmlns:rdf="http://www.w3.org/1999/02/22-rdf-syntax-ns#"
   xmlns:svg="http://www.w3.org/2000/svg"
   xmlns="http://www.w3.org/2000/svg"
   xmlns:sodipodi="http://sodipodi.sourceforge.net/DTD/sodipodi-0.dtd"
   xmlns:inkscape="http://www.inkscape.org/namespaces/inkscape"
   id="svg2"
   version="1.1"
   inkscape:version="0.48.5 r10040"
   width="1024"
   height="1024"
   xml:space="preserve"
   sodipodi:docname="icon.svg"
   inkscape:export-filename="/Users/shahab/Desktop/icon16.png"
   inkscape:export-xdpi="1.41"
   inkscape:export-ydpi="1.41"><metadata
     id="metadata8"><rdf:RDF><cc:Work
         rdf:about=""><dc:format>image/svg+xml</dc:format><dc:type
           rdf:resource="http://purl.org/dc/dcmitype/StillImage" /><dc:title></dc:title></cc:Work></rdf:RDF></metadata><defs
     id="defs6"><clipPath
       clipPathUnits="userSpaceOnUse"
       id="clipPath18"><path
         d="m 0.99,0.162 32,0 0,16.98834 -32,0 0,-16.98834 z"
         id="path20"
         inkscape:connector-curvature="0" /></clipPath></defs><sodipodi:namedview
     pagecolor="#ffffff"
     bordercolor="#666666"
     borderopacity="1"
     objecttolerance="10"
     gridtolerance="10"
     guidetolerance="10"
     inkscape:pageopacity="0"
     inkscape:pageshadow="2"
     inkscape:window-width="1354"
     inkscape:window-height="815"
     id="namedview4"
     showgrid="false"
     fit-margin-top="0"
     fit-margin-left="0"
     fit-margin-right="0"
     fit-margin-bottom="0"
     inkscape:zoom="0.59472656"
     inkscape:cx="512"
     inkscape:cy="512"
     inkscape:window-x="0"
     inkscape:window-y="0"
     inkscape:window-maximized="0"
     inkscape:current-layer="g10" /><g
     id="g10"
     inkscape:groupmode="layer"
     inkscape:label="latex-image-2"
     transform="matrix(1.25,0,0,-1.25,27.015087,959.7247)"><text
       transform="scale(1,-1)"
       sodipodi:linespacing="125%"
       id="text3005"
       y="-197.01782"
       x="32.592297"
       style="font-size:425.95849609px;font-style:normal;font-weight:normal;line-height:125%;letter-spacing:0px;word-spacing:0px;fill:#afc6e9;fill-opacity:1;stroke:none;font-family:Sans"
       xml:space="preserve"><tspan
         style="font-size:851.91699219px;font-style:normal;font-variant:normal;font-weight:normal;font-stretch:normal;fill:#afc6e9;font-family:Garamond;-inkscape-font-specification:Garamond"
         y="-197.01782"
         x="32.592297"
         id="tspan3007"
         sodipodi:role="line">Q</tspan></text>
<g
       id="g12"
       transform="matrix(0.68089225,0,0,0.68089225,0.64882815,-12.007103)" /><text
       xml:space="preserve"
       style="font-size:425.95849609px;font-style:normal;font-weight:normal;line-height:125%;letter-spacing:0px;word-spacing:0px;fill:#000000;fill-opacity:1;stroke:none;font-family:Sans"
       x="-38.316322"
       y="-147.89778"
       id="text3001"
       sodipodi:linespacing="125%"
       transform="scale(1,-1)"><tspan
         sodipodi:role="line"
         id="tspan3003"
         x="-38.316322"
         y="-147.89778"
         style="font-size:851.91699219px;font-style:normal;font-variant:normal;font-weight:normal;font-stretch:normal;fill:#006680;font-family:Garamond;-inkscape-font-specification:Garamond">Q</tspan></text>
<g
       id="g14"
       transform="matrix(19.530831,0,0,19.530831,152.59729,230.50928)"
       style="fill:#c83737"><g
         id="g16"
         clip-path="url(#clipPath18)"
         style="fill:#c83737"><path
           d="m 8.365798,9.694648 c 0.42604,1.038442 0.42604,1.118332 0.772188,2.103542 0.292911,0.71895 0.479345,1.19823 0.479345,1.89059 0,1.62427 -1.144989,2.95563 -2.955684,2.95563 -3.355056,0 -4.739684,-5.21902 -4.739684,-5.53852 0,-0.34614 0.372781,-0.34614 0.452665,-0.34614 0.346155,0 0.372788,0.05323 0.559175,0.63906 0.985221,3.38166 2.396475,4.44676 3.621335,4.44676 0.292903,0 0.905337,0 0.905337,-1.14499 0,-0.74554 -0.239646,-1.51773 -0.399414,-1.86387 C 6.768157,11.90474 5.17051,7.724233 4.584709,6.17981 4.238554,5.247847 3.759256,4.076238 3.759256,3.304044 c 0,-1.677532 1.224867,-2.9290243 2.95565,-2.9290243 3.381704,0 4.686404,5.1923563 4.686404,5.5118863 0,0.372781 -0.31949,0.372781 -0.42604,0.372781 -0.34615,0 -0.34615,-0.10651 -0.53251,-0.639059 C 9.803698,3.357295 8.605471,1.147214 6.79479,1.147214 c -0.612433,0 -0.878711,0.372788 -0.878711,1.198241 0,0.90533 0.213019,1.411254 1.038472,3.594702 l 1.411247,3.754491"
           style="fill:#c83737;fill-opacity:1;fill-rule:nonzero;stroke:none"
           id="path22"
           inkscape:connector-curvature="0" /><path
           d="m 21.99906,14.16806 4.07403,0 c -1.19823,-5.325491 -1.5178,-6.869866 -1.5178,-9.266369 0,-0.559181 0,-1.51777 0.29292,-2.74263 0.34614,-1.5710216 0.7456,-1.7840413 1.27811,-1.7840413 0.71895,0 1.49114,0.6390593 1.49114,1.3580023 0,0.21302 0,0.292904 -0.21302,0.79882 -1.0651,2.582869 -1.0651,4.89948 -1.0651,5.911273 0,1.917175 0.26626,3.834355 0.66571,5.724945 l 4.10062,0 c 0.45269,0 1.75739,0 1.75739,1.19823 0,0.87873 -0.77219,0.87873 -1.4379,0.87873 l -12.03558,0 c -0.79884,0 -2.15685,0 -3.72787,-1.70416 -1.27812,-1.38466 -2.21002,-3.03558 -2.21002,-3.22195 0,-0.02665 0,-0.34614 0.42604,-0.34614 0.29284,0 0.37273,0.13312 0.58575,0.42604 1.75746,2.76925 3.83435,2.76925 4.5533,2.76925 l 2.05031,0 C 19.9221,9.801124 17.97834,5.460866 16.4872,2.185687 16.19429,1.653138 16.19429,1.599886 16.19429,1.333608 c 0,-0.6656859 0.55917,-0.9585883 1.03844,-0.9585883 1.0651,0 1.35801,1.0118473 1.78405,2.3165903 0.50593,1.6509 0.50593,1.730784 0.98521,3.541451 l 1.99707,7.934999"
           style="fill:#c83737;fill-opacity:1;fill-rule:nonzero;stroke:none"
           id="path24"
           inkscape:connector-curvature="0" /></g></g></g></svg>